<svg width="96" height="96" viewBox="0 0 96 96" fill="none" xmlns="http://www.w3.org/2000/svg">
  <defs>
    <linearGradient id="grad-surface" x1="10" y1="8" x2="86" y2="88" gradientUnits="userSpaceOnUse">
      <stop stop-color="#7C3AED"/>
      <stop offset="0.5" stop-color="#6366F1"/>
      <stop offset="1" stop-color="#14B8A6"/>
    </linearGradient>
    <radialGradient id="glow" cx="0" cy="0" r="1" gradientUnits="userSpaceOnUse" gradientTransform="translate(28 20) rotate(40) scale(90 90)">
      <stop stop-color="#A78BFA" stop-opacity="0.55"/>
      <stop offset="1" stop-color="#06B6D4" stop-opacity="0.15"/>
    </radialGradient>
    <linearGradient id="stroke" x1="24" y1="24" x2="74" y2="72" gradientUnits="userSpaceOnUse">
      <stop stop-color="#FFFFFF"/>
      <stop offset="1" stop-color="#E9E7FF"/>
    </linearGradient>
    <filter id="drop" x="0" y="0" width="96" height="96" color-interpolation-filters="sRGB" filterUnits="userSpaceOnUse">
      <feDropShadow dx="0" dy="3" stdDeviation="6" flood-opacity="0.25"/>
    </filter>
    <filter id="inner" x="6" y="6" width="84" height="84" filterUnits="userSpaceOnUse" color-interpolation-filters="sRGB">
      <feOffset dy="1"/>
      <feGaussianBlur stdDeviation="2.5"/>
      <feComposite operator="out" in2="SourceGraphic"/>
      <feColorMatrix type="matrix" values="0 0 0 0 0  0 0 0 0 0  0 0 0 0 0  0 0 0 0.45 0"/>
      <feBlend in2="SourceGraphic" mode="normal"/>
    </filter>
  </defs>

  <!-- Outer card -->
  <g filter="url(#drop)">
    <rect x="6" y="6" width="84" height="84" rx="18" fill="url(#grad-surface)"/>
    <rect x="6" y="6" width="84" height="84" rx="18" fill="url(#glow)"/>
  </g>

  <!-- Orbital accent -->
  <g opacity="0.9">
    <path d="M20 66c8-12 28-18 44-14" stroke="rgba(255,255,255,0.35)" stroke-width="2" stroke-linecap="round"/>
    <circle cx="68" cy="50" r="3.5" fill="#fff" fill-opacity="0.85"/>
  </g>

  <!-- Monogram LS (stroked, rounded) -->
  <g filter="url(#inner)">
    <!-- L -->
    <path d="M30 26v36h22" stroke="url(#stroke)" stroke-width="7.5" stroke-linecap="round" stroke-linejoin="round"/>
    <!-- S -->
    <path d="M58 30c-6 0-10 3.5-10 8 0 6 6 7 10 8 5 1.5 9 3.5 9 9 0 5-4.5 9-11 9-4.5 0-8-1.5-10-3" stroke="url(#stroke)" stroke-width="7.5" stroke-linecap="round" stroke-linejoin="round"/>
  </g>

  <!-- Shine overlay -->
  <path d="M18 22c14-8 46-6 60 10" stroke="#FFFFFF" stroke-opacity="0.18" stroke-width="8" stroke-linecap="round"/>
</svg>

